# xmcd
#
# Track frame offsets:
#	150
#	19602
#	36683
#	48925
#	63508
#	79631
#	93717
#	108429
#	119270
#	133695
#	149963
#	165337
#	182485
#	199396
#	217274
#	232892
#	247331
#	262802
#	279538
#	294945
#
# Disc length: 4102 seconds
# Revision: 0
# Processed by: cddbd v1.5.2PL0 Copyright (c) Steve Scherf et al.
# Submitted via: dBpowerAMP V12.0
#
DISCID=33100414
DTITLE=Various Artist - Country Radio September 2011
DYEAR=2011
DGENRE=Country
TTITLE0=Taylor Swift - Sparks Fly
TTITLE1=Blake Shelton - God Gave Me You
TTITLE2=Terri Clark - We're Here For A Good Time
TTITLE3=Hayley - Breaking Up With Love
TTITLE4=Kira Isabella - Love Me Like That
TTITLE5=Emerson Drive - Sleep It Off
TTITLE6=Miranda Lambert - Baggage Claim
TTITLE7=Victoria Banks - I'm Gone
TTITLE8=Toby Keith - Made In America
TTITLE9=Jason Kirkness - No Cowboy
TTITLE10=Libby McGrath - Princess
TTITLE11=Band Perry The - All Your Life
TTITLE12=Martina McBride - I'm Gonna Love You Through It
TTITLE13=Sara Evans - My Heart Can't Tell You No
TTITLE14=Justin Moore - Bait A Hook
TTITLE15=Jerry Sereda - Morning After The Night Before
TTITLE16=Hunter Hayes - Storm Warning
TTITLE17=Donny Gokey - Second Hand Heart
TTITLE18=James Wesley - Didn't I
TTITLE19=Colt Ford Feat George Canyon and Jason McCoy - Country Thang
EXTD=
EXTT0=
EXTT1=
EXTT2=
EXTT3=
EXTT4=
EXTT5=
EXTT6=
EXTT7=
EXTT8=
EXTT9=
EXTT10=
EXTT11=
EXTT12=
EXTT13=
EXTT14=
EXTT15=
EXTT16=
EXTT17=
EXTT18=
EXTT19=
PLAYORDER=
